<?xml version="1.0" encoding="UTF-8" standalone="no"?><!-- Generator: Gravit.io --><svg xmlns="http://www.w3.org/2000/svg" xmlns:xlink="http://www.w3.org/1999/xlink" style="isolation:isolate" viewBox="0 0 100 100" width="100pt" height="100pt"><defs><clipPath id="_clipPath_gM5mKodtXEfC68dnghhyqRtgtEfLkDvv"><rect width="100" height="100"/></clipPath></defs><g clip-path="url(#_clipPath_gM5mKodtXEfC68dnghhyqRtgtEfLkDvv)"><g><circle vector-effect="non-scaling-stroke" cx="49.99999999999999" cy="49.99999999999997" r="50.00000000000001" fill="rgb(255,202,40)"/><circle vector-effect="non-scaling-stroke" cx="31.578947368421062" cy="47.368421052631525" r="10.526315789473685" fill="rgb(109,76,65)"/><circle vector-effect="non-scaling-stroke" cx="27.63157894736845" cy="43.42105263157891" r="3.9473684210526336" fill="rgb(255,255,255)"/><circle vector-effect="non-scaling-stroke" cx="68.42105263157897" cy="47.368421052631525" r="10.526315789473685" fill="rgb(109,76,65)"/><circle vector-effect="non-scaling-stroke" cx="64.47368421052636" cy="43.42105263157891" r="3.9473684210526336" fill="rgb(255,255,255)"/><mask id="_mask_J0WYseHCyVmHL9xbwOwwBFiRPFLwmlbd" x="-200%" y="-200%" width="400%" height="400%"><rect x="-200%" y="-200%" width="400%" height="400%" style="fill:white;"/><path d=" M 60.526 71.053 C 60.526 76.866 55.814 81.579 50 81.579 C 44.186 81.579 39.474 76.866 39.474 71.053" fill="black" stroke="none"/></mask><path d=" M 60.526 71.053 C 60.526 76.866 55.814 81.579 50 81.579 C 44.186 81.579 39.474 76.866 39.474 71.053" fill="none"/><path d=" M 60.526 71.053 C 60.526 76.866 55.814 81.579 50 81.579 C 44.186 81.579 39.474 76.866 39.474 71.053" fill="none" mask="url(#_mask_J0WYseHCyVmHL9xbwOwwBFiRPFLwmlbd)" vector-effect="non-scaling-stroke" stroke-width="2.75" stroke="rgb(183,108,9)" stroke-linejoin="miter" stroke-linecap="butt" stroke-miterlimit="4"/></g></g></svg>