<?xml version="1.0" encoding="UTF-8" standalone="no"?><!-- Generator: Gravit.io --><svg xmlns="http://www.w3.org/2000/svg" xmlns:xlink="http://www.w3.org/1999/xlink" style="isolation:isolate" viewBox="0 0 500 500" width="500pt" height="500pt"><defs><clipPath id="_clipPath_HAf8TslZ6uKjMFZZZmL1T7nfX8xiu8jH"><rect width="500" height="500"/></clipPath></defs><g clip-path="url(#_clipPath_HAf8TslZ6uKjMFZZZmL1T7nfX8xiu8jH)"><g><path d=" M 53.461 493.821 L 53.461 158.966 L 255.5 110.828 L 457.539 158.966 L 457.539 493.821 L 53.461 493.821 Z " fill="rgb(247,143,143)"/><path d=" M 255.5 117.144 L 452.079 163.972 L 452.079 487.641 L 58.921 487.641 L 58.921 163.972 L 255.5 117.144 Z  M 255.5 104.513 L 48 153.949 L 48 500 L 463 500 L 463 153.949 L 255.5 104.513 Z " fill="rgb(199,67,67)"/><rect x="58.921" y="438.205" width="393.158" height="49.436" transform="matrix(1,0,0,1,0,0)" fill="rgb(230,117,117)"/><path d=" M 255.5 18 L 266.148 42.409 L 289.945 46.327 L 272.722 65.323 L 276.796 92.154 L 255.5 79.486 L 234.204 92.154 L 238.277 65.323 L 221.055 46.327 L 244.852 42.409 L 255.5 18 Z " fill="rgb(199,67,67)"/><path d=" M 342.868 42.718 L 351.736 63.061 L 371.58 66.324 L 357.219 82.155 L 360.615 104.513 L 342.868 93.958 L 325.122 104.513 L 328.518 82.155 L 314.157 66.324 L 334.001 63.061 L 342.868 42.718 Z " fill="rgb(199,67,67)"/><path d=" M 419.316 67.436 L 428.184 87.779 L 448.027 91.042 L 433.666 106.873 L 437.062 129.231 L 419.316 118.676 L 401.569 129.231 L 404.966 106.873 L 390.604 91.042 L 410.448 87.779 L 419.316 67.436 Z " fill="rgb(199,67,67)"/><path d=" M 168.132 42.718 L 159.264 63.061 L 139.42 66.324 L 153.781 82.155 L 150.385 104.513 L 168.132 93.958 L 185.878 104.513 L 182.482 82.155 L 196.843 66.324 L 176.999 63.061 L 168.132 42.718 Z " fill="rgb(199,67,67)"/><path d=" M 91.684 67.436 L 82.816 87.779 L 62.973 91.042 L 77.334 106.873 L 73.937 129.231 L 91.684 118.676 L 109.431 129.231 L 106.034 106.873 L 120.396 91.042 L 100.552 87.779 L 91.684 67.436 Z " fill="rgb(199,67,67)"/><rect x="217.276" y="320.795" width="76.447" height="173.026" transform="matrix(1,0,0,1,0,0)" fill="rgb(255,222,222)"/><path d=" M 288.263 326.974 L 288.263 487.641 L 222.737 487.641 L 222.737 326.974 L 288.263 326.974 Z  M 299.184 314.615 L 211.816 314.615 L 211.816 500 L 299.184 500 L 299.184 314.615 Z " fill="rgb(199,67,67)"/><rect x="337.408" y="320.795" width="76.447" height="61.795" transform="matrix(1,0,0,1,0,0)" fill="rgb(255,222,222)"/><path d=" M 408.395 326.974 L 408.395 376.41 L 342.868 376.41 L 342.868 326.974 L 408.395 326.974 Z  M 419.316 314.615 L 331.947 314.615 L 331.947 388.769 L 419.316 388.769 L 419.316 314.615 Z " fill="rgb(199,67,67)"/><rect x="337.408" y="209.564" width="76.447" height="61.795" transform="matrix(1,0,0,1,0,0)" fill="rgb(255,222,222)"/><path d=" M 408.395 215.744 L 408.395 265.179 L 342.868 265.179 L 342.868 215.744 L 408.395 215.744 Z  M 419.316 203.385 L 331.947 203.385 L 331.947 277.538 L 419.316 277.538 L 419.316 203.385 Z " fill="rgb(199,67,67)"/><rect x="97.145" y="320.795" width="76.447" height="61.795" transform="matrix(1,0,0,1,0,0)" fill="rgb(255,222,222)"/><path d=" M 168.132 326.974 L 168.132 376.41 L 102.605 376.41 L 102.605 326.974 L 168.132 326.974 Z  M 179.053 314.615 L 91.684 314.615 L 91.684 388.769 L 179.053 388.769 L 179.053 314.615 Z " fill="rgb(199,67,67)"/><rect x="97.145" y="209.564" width="76.447" height="61.795" transform="matrix(1,0,0,1,0,0)" fill="rgb(255,222,222)"/><path d=" M 168.132 215.744 L 168.132 265.179 L 102.605 265.179 L 102.605 215.744 L 168.132 215.744 Z  M 179.053 203.385 L 91.684 203.385 L 91.684 277.538 L 179.053 277.538 L 179.053 203.385 Z " fill="rgb(199,67,67)"/><rect x="217.276" y="209.564" width="76.447" height="61.795" transform="matrix(1,0,0,1,0,0)" fill="rgb(255,222,222)"/><path d=" M 288.263 215.744 L 288.263 265.179 L 222.737 265.179 L 222.737 215.744 L 288.263 215.744 Z  M 299.184 203.385 L 211.816 203.385 L 211.816 277.538 L 299.184 277.538 L 299.184 203.385 Z " fill="rgb(199,67,67)"/></g></g></svg>