<?xml version="1.0" encoding="UTF-8" standalone="no"?><!-- Generator: Gravit.io --><svg xmlns="http://www.w3.org/2000/svg" xmlns:xlink="http://www.w3.org/1999/xlink" style="isolation:isolate" viewBox="0 0 500 500" width="500pt" height="500pt"><defs><clipPath id="_clipPath_rNTsDuQiGfVhSiqsMT8ExY7sCBSnOJaA"><rect width="500" height="500"/></clipPath></defs><g clip-path="url(#_clipPath_rNTsDuQiGfVhSiqsMT8ExY7sCBSnOJaA)"><g><g><path d=" M 382.127 172.213 L 368.255 172.213 L 361.319 138.62 L 389.063 138.62 L 382.127 172.213 Z " fill="rgb(144,202,249)"/><rect x="340.512" y="138.62" width="6.936" height="26.874" transform="matrix(1,0,0,1,0,0)" fill="rgb(144,202,249)"/><path d=" M 347.448 145.339 L 340.512 145.339 L 319.704 125.183 L 368.255 125.183 L 347.448 145.339 Z " fill="rgb(144,202,249)"/></g><path d=" M 305.832 178.932 C 305.832 178.932 312.768 192.369 326.64 192.369 L 395.999 192.369 C 409.871 192.369 416.807 178.932 416.807 178.932 L 305.832 178.932 Z " fill="rgb(92,107,192)"/><path d=" M 319.704 165.495 C 319.704 165.495 326.64 178.932 340.512 178.932 L 382.127 178.932 C 395.999 178.932 402.935 165.495 402.935 165.495 L 319.704 165.495 Z " fill="rgb(57,73,171)"/><path d=" M 229.031 272.978 L 250.081 189.03 C 250.081 189.03 242.854 185.63 229.031 185.63 C 229.031 185.63 208.369 189.036 208.369 189.036 L 229.031 272.978 Z " fill="rgb(227,242,253)"/><path d=" M 242.965 167.154 L 215.097 167.154 L 215.097 187.31 L 229.031 189.01 L 242.965 187.31 L 242.965 167.154 Z " fill="rgb(255,152,0)"/><g><path d=" M 375.191 192.369 L 361.319 205.806 L 340.512 205.806 L 319.704 239.399 L 319.704 205.806 C 319.704 192.369 333.576 192.369 333.576 192.369 L 375.191 192.369 Z " fill="rgb(255,183,77)"/><path d=" M 194.858 340.177 L 174.05 326.74 L 174.05 299.866 L 194.858 299.866 L 194.858 340.177 Z " fill="rgb(255,183,77)"/><path d=" M 229.031 178.938 C 209.812 178.938 194.199 163.869 194.199 145.346 C 194.199 126.823 209.812 111.746 229.031 111.746 C 248.243 111.746 263.856 126.823 263.856 145.346 C 263.856 163.869 248.237 178.938 229.031 178.938 Z " fill="rgb(255,183,77)"/></g><path d=" M 227.505 98.309 C 210.526 99.78 194.192 111.276 194.192 135.758 L 194.192 145.346 L 201.163 152.064 L 201.163 131.902 L 245.115 117.114 L 256.893 131.902 L 256.893 152.064 L 263.856 145.346 L 263.856 137.27 C 263.856 121.045 262.913 109.005 242.958 105.028 L 239.574 98.309 L 227.505 98.309 Z " fill="rgb(66,66,66)"/><g><path d=" M 319.704 199.087 L 298.896 232.68 C 298.896 232.68 275.606 203.293 271.132 200.048 C 264.719 195.393 257.612 191.711 250.054 189.131 L 229.031 272.978 L 208.397 189.137 C 186.604 196.796 174.05 216.381 174.05 239.399 L 174.05 306.584 L 194.858 320.022 L 194.858 340.177 L 271.153 340.177 L 271.153 240.03 L 291.96 259.554 L 312.768 259.554 L 340.512 212.525 L 319.704 199.087 Z " fill="rgb(69,90,100)"/><path d=" M 215.513 178.912 L 229.031 189.01 L 215.513 199.108 C 215.513 199.108 211.594 197.018 211.594 189.305 C 211.594 189.305 215.513 178.912 215.513 178.912 Z  M 242.965 199.108 L 229.031 189.01 L 242.965 178.912 C 242.965 178.912 246.877 181.001 246.877 188.714 C 246.877 188.714 242.965 199.108 242.965 199.108 Z " fill="rgb(69,90,100)"/></g></g><path d=" M 137.18 219.246 C 121.32 219.026 108.092 231.97 107.786 248.009 C 107.48 264.049 120.206 277.352 136.066 277.571 C 151.926 277.791 165.153 264.847 165.459 248.808 C 165.765 232.768 153.04 219.466 137.18 219.246 Z  M 367.871 222.441 C 352.011 222.221 338.784 235.165 338.477 251.204 C 338.171 267.244 350.897 280.547 366.757 280.766 C 382.617 280.986 395.844 268.043 396.15 252.003 C 396.457 235.964 383.731 222.661 367.871 222.441 Z  M 136.901 233.827 C 144.954 233.939 151.196 240.465 151.041 248.608 C 150.885 256.752 144.397 263.101 136.344 262.99 C 128.292 262.878 122.049 256.352 122.204 248.209 C 122.36 240.065 128.848 233.716 136.901 233.827 Z  M 367.592 237.022 C 375.645 237.134 381.888 243.66 381.732 251.803 C 381.577 259.947 375.088 266.297 367.035 266.185 C 358.983 266.073 352.74 259.548 352.896 251.404 C 353.051 243.26 359.54 236.911 367.592 237.022 Z  M 135.926 284.862 C 120.066 284.642 106.839 297.586 106.533 313.625 L 105.303 381.065 C 105.328 381.262 105.324 381.466 105.349 381.663 C 106.348 396.769 118.586 408.542 133.559 408.803 L 165.914 409.251 L 164.707 416.527 L 111.288 415.787 C 103.898 415.735 97.885 409.822 97.627 402.355 L 99.602 298.944 C 99.665 296.972 98.938 295.062 97.586 293.648 C 96.233 292.235 94.37 291.436 92.419 291.435 C 88.453 291.468 85.203 294.726 85.184 298.744 L 83.193 402.979 C 83.619 412.52 88.71 421.196 96.777 426.124 L 88.846 487.607 C 88.593 489.524 89.107 491.459 90.273 492.983 C 91.44 494.507 93.162 495.493 95.058 495.723 C 96.952 495.968 98.869 495.437 100.382 494.249 C 101.895 493.061 102.88 491.313 103.118 489.395 L 110.779 430.336 C 110.837 430.337 110.923 430.367 111.009 430.369 L 162.266 431.078 L 153.901 480.931 C 153.486 483.368 154.318 485.844 156.112 487.511 C 156.112 487.511 159.41 490.379 164.833 492.62 C 170.25 494.831 178.351 496.935 189.561 497.09 C 200.771 497.245 208.948 495.367 214.446 493.307 C 216.945 492.342 216.981 492 218.491 491.08 C 219.936 492.041 219.93 492.384 222.305 493.387 C 227.699 495.627 235.829 497.731 247.234 497.889 C 258.639 498.047 266.845 496.169 272.322 494.079 C 274.733 493.165 274.711 492.8 276.192 491.909 C 277.638 492.84 277.609 493.212 279.978 494.185 C 285.372 496.426 293.502 498.529 304.907 498.687 C 316.311 498.845 324.517 496.968 329.994 494.878 C 335.471 492.788 338.873 489.896 338.873 489.896 C 340.622 488.276 341.479 485.895 341.165 483.525 L 334.715 433.467 L 385.972 434.177 C 386.051 434.178 386.138 434.15 386.218 434.151 L 391.569 493.39 C 391.939 497.413 395.467 500.343 399.447 499.968 C 403.392 499.57 406.302 495.986 405.96 492 L 400.381 430.329 C 408.616 425.615 414.023 417.089 414.812 407.572 L 416.803 303.337 C 416.866 301.365 416.139 299.456 414.786 298.042 C 413.434 296.628 411.571 295.83 409.62 295.828 C 405.653 295.861 402.404 299.12 402.385 303.138 L 400.41 406.548 C 399.867 414.004 393.631 419.748 386.243 419.595 L 332.824 418.856 L 331.896 411.55 L 364.25 411.998 C 379.226 412.152 391.907 400.724 393.482 385.654 C 393.515 385.457 393.519 385.253 393.523 385.056 L 394.897 317.619 C 395.203 301.58 382.478 288.277 366.618 288.057 C 350.873 287.839 339.245 300.87 337.268 316.019 C 337.235 316.281 337.23 316.529 337.224 316.82 L 336.25 367.855 L 326.229 367.716 L 322.322 337.412 C 321.863 333.838 318.885 331.155 315.318 331.102 L 185.555 329.305 C 181.988 329.259 178.909 331.858 178.313 335.418 L 173.252 365.597 L 163.231 365.459 L 164.206 314.424 C 164.211 314.132 164.216 313.884 164.192 313.622 C 162.795 298.434 151.671 285.08 135.926 284.862 Z  M 135.648 299.443 C 143.758 299.555 148.886 305.555 149.774 314.939 L 148.674 372.549 C 148.597 376.559 151.778 379.885 155.743 379.94 L 170.81 380.149 L 168.369 394.7 L 133.838 394.222 C 126.343 394.151 120.197 388.258 119.732 380.696 L 120.951 313.825 C 121.107 305.681 127.595 299.332 135.648 299.443 Z  M 366.339 302.638 C 374.392 302.75 380.634 309.276 380.479 317.419 L 379.115 384.288 C 378.385 391.834 372.021 397.563 364.529 397.417 L 329.997 396.939 L 328.113 382.327 L 343.18 382.536 C 347.145 382.591 350.452 379.355 350.529 375.345 L 351.629 317.734 C 352.875 308.381 358.229 302.526 366.339 302.638 Z  M 191.476 343.972 L 308.84 345.597 L 326.236 480.605 C 325.639 480.889 326.088 480.808 324.955 481.244 C 321.243 482.673 314.954 484.241 305.185 484.106 C 295.417 483.971 289.162 482.229 285.535 480.698 C 284.526 480.29 284.221 480.053 283.635 479.76 L 284.115 454.644 C 284.178 452.672 283.451 450.762 282.098 449.348 C 280.746 447.935 278.883 447.136 276.932 447.135 C 272.965 447.168 269.716 450.426 269.697 454.444 L 269.217 479.561 C 268.62 479.844 268.306 480.058 267.282 480.445 C 263.57 481.874 257.281 483.443 247.512 483.307 C 237.744 483.172 231.489 481.43 227.863 479.899 C 226.854 479.492 226.548 479.254 225.962 478.961 L 226.721 439.264 C 226.784 437.292 226.056 435.382 224.704 433.968 C 223.351 432.554 221.488 431.756 219.538 431.755 C 215.571 431.788 212.321 435.046 212.302 439.064 L 211.545 478.711 C 210.92 478.986 210.547 479.237 209.473 479.615 C 205.659 481.072 199.356 482.64 189.84 482.508 C 180.323 482.377 174.076 480.635 170.327 479.073 C 169.154 478.605 169.577 478.698 168.935 478.347 L 191.476 343.972 Z " fill="rgb(0,0,0)"/></g></svg>