<?xml version="1.0" encoding="UTF-8" standalone="no"?><!-- Generator: Gravit.io --><svg xmlns="http://www.w3.org/2000/svg" xmlns:xlink="http://www.w3.org/1999/xlink" style="isolation:isolate" viewBox="0 0 1920 1280"  width="1920" height="1080"><defs><clipPath id="_clipPath_XJnGsXUn81CESMLAMpN544J7Ow1h3QOw"><rect width="1920" height="1280"/></clipPath></defs><g clip-path="url(#_clipPath_XJnGsXUn81CESMLAMpN544J7Ow1h3QOw)"><path d=" M 531.959 591.946 Q 722.436 5.437 1047.1 389.772 Q 610.862 415.951 705.741 70.554 Q 800.619 -274.843 392.049 -222.791 L -14 -226.795 L -8.956 804.236 Q 341.483 1178.455 531.959 591.946 Z " fill="rgb(249,211,51)" vector-effect="non-scaling-stroke" stroke-width="1" stroke="rgb(255,255,255)" stroke-linejoin="miter" stroke-linecap="square" stroke-miterlimit="3"/><path d=" M 1098.579 389.037 C 1100.741 390.426 1103.656 389.792 1105.051 387.63 C 1106.445 385.467 1105.815 382.555 1103.653 381.166 C 1101.492 379.777 1098.576 380.412 1097.181 382.574 C 1095.787 384.736 1096.417 387.648 1098.579 389.037 Z  M 1070.691 371.119 C 1072.853 372.508 1075.769 371.874 1077.163 369.712 C 1078.557 367.549 1077.927 364.637 1075.766 363.248 C 1073.604 361.859 1070.688 362.493 1069.294 364.656 C 1067.899 366.818 1068.529 369.73 1070.691 371.119 Z  M 1114.527 412.953 C 1114.151 412.161 1113.401 411.618 1112.543 411.526 L 1100.848 410.127 L 1101.308 409.414 C 1102.41 407.706 1102.607 405.692 1102.052 403.898 C 1108.132 403.604 1113.699 400.391 1116.998 395.275 C 1122.63 386.54 1120.105 374.856 1111.371 369.245 C 1105.544 365.509 1098.132 365.266 1092.059 368.61 C 1092.594 361.708 1089.302 355.074 1083.483 351.327 C 1074.749 345.715 1063.05 348.259 1057.417 356.994 C 1053.946 362.378 1053.573 368.836 1055.827 374.351 C 1053.968 374.635 1052.32 375.704 1051.305 377.286 L 1037.084 399.341 C 1035.133 402.368 1036.008 406.416 1039.034 408.361 L 1078.034 433.419 C 1081.061 435.363 1085.115 434.482 1087.066 431.455 L 1087.526 430.741 L 1093.645 440.788 C 1094.095 441.531 1094.896 441.988 1095.765 442 C 1096.634 442.011 1097.448 441.574 1097.92 440.844 L 1114.329 415.395 C 1114.825 414.673 1114.882 413.731 1114.527 412.953 L 1114.527 412.953 Z  M 1041.286 402.071 L 1055.506 380.016 C 1055.953 379.324 1056.877 379.123 1057.569 379.568 L 1096.59 404.639 C 1097.282 405.084 1097.482 406.007 1097.036 406.699 L 1082.801 428.775 C 1082.355 429.467 1081.431 429.668 1080.739 429.224 L 1041.717 404.152 C 1041.04 403.686 1040.84 402.763 1041.286 402.071 Z  M 1076.508 385.712 C 1078.55 385.342 1080.523 384.653 1082.334 383.646 C 1082.188 385.722 1082.376 387.801 1082.863 389.796 L 1076.508 385.712 Z  M 1108.603 373.491 C 1115.002 377.602 1116.852 386.161 1112.725 392.561 C 1108.598 398.961 1100.029 400.824 1093.629 396.713 C 1087.23 392.601 1085.402 384.057 1089.529 377.657 C 1093.655 371.256 1102.225 369.393 1108.603 373.491 L 1108.603 373.491 Z  M 1061.641 359.738 C 1065.767 353.338 1074.337 351.475 1080.736 355.586 C 1087.135 359.698 1088.986 368.256 1084.859 374.656 C 1080.732 381.057 1072.162 382.92 1065.763 378.809 C 1059.343 374.683 1057.514 366.139 1061.641 359.738 Z  M 1095.858 434.749 L 1090.566 426.027 L 1097.787 414.827 L 1107.917 416.045 L 1095.858 434.749 L 1095.858 434.749 Z  M 1036.519 392.678 C 1037.686 393.428 1039.251 393.088 1040.004 391.92 L 1046.194 382.32 C 1046.947 381.152 1046.609 379.59 1045.442 378.84 C 1044.274 378.09 1042.71 378.43 1041.957 379.598 L 1035.767 389.198 C 1035.014 390.365 1035.352 391.928 1036.519 392.678 Z " fill="rgb(138,135,135)"/><g clip-path="url(#_clipPath_ReQtX8i0KhDBpyjQqI74S7oKW9U8PP1u)"><text transform="matrix(1,0,0,1,205.28,107.577)" style="font-family:'Nunito Sans';font-weight:300;font-size:48px;font-style:normal;fill:#4fc3f7;stroke:none;">StarWing</text></g><defs><clipPath id="_clipPath_ReQtX8i0KhDBpyjQqI74S7oKW9U8PP1u"><rect x="0" y="0" width="542.508" height="111.569" transform="matrix(1,0,0,1,37.122,36)"/></clipPath></defs><g clip-path="url(#_clipPath_uWKW21weXnyUiDxhRO28rsZ5gapBNk6l)"><text transform="matrix(1,0,0,1,207.116,373.408)" style="font-family:'Nunito Sans';font-weight:300;font-size:60px;font-style:normal;fill:#8a8787;stroke:none;">SHARE</text><text transform="matrix(1,0,0,1,99.236,455.248)" style="font-family:'Nunito Sans';font-weight:300;font-size:60px;font-style:normal;fill:#8a8787;stroke:none;">YOUR RECIPES </text><text transform="matrix(1,0,0,1,219.296,537.088)" style="font-family:'Nunito Sans';font-weight:300;font-size:60px;font-style:normal;fill:#8a8787;stroke:none;">WITH </text><text transform="matrix(1,0,0,1,128.606,618.928)" style="font-family:'Nunito Sans';font-weight:300;font-size:60px;font-style:normal;fill:#8a8787;stroke:none;">THE WORLD</text></g><defs><clipPath id="_clipPath_uWKW21weXnyUiDxhRO28rsZ5gapBNk6l"><rect x="0" y="0" width="465.766" height="462.259" transform="matrix(1,0,0,1,75.492,245.298)"/></clipPath></defs><path d=" M 1582.719 719.905 L 1582.719 890.748 L 1852.984 890.748 L 1852.984 719.905 L 1582.719 719.905 Z  M 1818.789 659.088 L 1816.665 659.088 L 1793.303 712.534 L 1852.984 712.534 L 1852.984 671.159 C 1849.277 673.656 1844.721 675.017 1840.028 675.029 C 1829.196 675.029 1820.276 668.026 1818.789 659.088 Z  M 1814.966 629.693 C 1815.285 629.6 1815.603 629.6 1815.922 629.6 C 1817.303 629.6 1818.683 630.153 1819.426 631.259 L 1827.285 641.395 C 1830.364 639.368 1834.081 638.078 1838.117 637.802 L 1769.197 548.879 C 1744.607 517.111 1703.387 498.07 1659.286 498.105 C 1650.578 498.105 1641.87 498.843 1633.268 500.317 L 1744.56 643.976 L 1814.966 629.693 L 1814.966 629.693 Z  M 1601.941 898.12 L 1616.808 898.12 L 1616.808 917.01 L 1601.941 917.01 L 1601.941 898.12 Z  M 1814.754 898.12 L 1829.621 898.12 L 1829.621 917.01 L 1814.754 917.01 L 1814.754 898.12 Z  M 1851.816 651.716 C 1849.706 647.76 1845.158 645.212 1840.134 645.173 C 1837.161 645.173 1834.4 646.095 1832.17 647.569 C 1831.002 648.399 1830.046 649.32 1829.196 650.334 C 1828.878 650.794 1828.559 651.163 1828.347 651.624 C 1827.816 652.545 1827.497 653.467 1827.285 654.48 C 1827.285 654.757 1827.179 655.033 1827.179 655.31 C 1827.179 655.678 1827.072 655.955 1827.072 656.323 C 1827.072 657.245 1827.179 658.166 1827.497 658.996 C 1828.665 663.234 1832.595 666.46 1837.48 667.381 C 1838.329 667.565 1839.179 667.658 1840.134 667.658 C 1841.303 667.658 1842.471 667.473 1843.533 667.289 C 1846.294 666.644 1848.736 665.17 1850.435 663.234 C 1851.497 662.037 1852.347 660.562 1852.771 658.996 C 1852.984 658.443 1853.09 657.798 1853.09 657.245 L 1853.09 656.416 C 1853.09 656.047 1853.09 655.678 1852.984 655.402 C 1852.771 654.02 1852.453 652.822 1851.816 651.716 L 1851.816 651.716 Z  M 1788.63 702.305 L 1575.923 702.305 L 1581.233 712.534 L 1784.17 712.534 L 1788.63 702.305 L 1788.63 702.305 Z  M 1590.896 581.223 C 1590.038 580.598 1588.929 580.296 1587.813 580.382 C 1586.697 580.469 1585.667 580.937 1584.95 581.684 C 1584.1 582.513 1564.985 603.154 1578.365 630.522 C 1590.153 654.665 1587.392 663.603 1584.206 673.831 L 1584.1 674.2 C 1583.463 676.135 1584.843 678.162 1587.073 678.715 C 1587.392 678.807 1587.817 678.807 1588.135 678.807 C 1590.047 678.807 1591.746 677.702 1592.277 676.043 L 1592.383 675.674 C 1595.675 665.077 1599.073 654.02 1586.118 627.573 C 1574.755 604.444 1590.79 587.028 1591.427 586.291 C 1592.914 584.817 1592.702 582.513 1590.896 581.223 L 1590.896 581.223 Z  M 1624.454 674.2 C 1623.817 676.135 1625.197 678.162 1627.427 678.715 C 1627.746 678.807 1628.171 678.807 1628.489 678.807 C 1630.401 678.807 1632.1 677.702 1632.631 676.043 L 1632.737 675.674 C 1636.029 665.077 1639.427 654.02 1626.471 627.573 C 1615.215 604.444 1631.038 587.12 1631.781 586.291 C 1632.749 585.287 1633.025 583.911 1632.507 582.682 C 1631.988 581.453 1630.754 580.557 1629.268 580.332 C 1627.782 580.107 1626.271 580.587 1625.303 581.591 C 1624.454 582.421 1605.339 603.062 1618.719 630.43 C 1630.507 654.573 1627.746 663.511 1624.56 673.739 L 1624.454 674.2 L 1624.454 674.2 Z  M 1660.241 674.2 C 1659.604 676.135 1660.985 678.162 1663.215 678.715 C 1663.533 678.807 1663.958 678.807 1664.277 678.807 C 1666.188 678.807 1667.887 677.702 1668.418 676.043 L 1668.524 675.674 C 1671.816 665.077 1675.215 654.02 1662.259 627.573 C 1650.896 604.444 1666.932 587.028 1667.569 586.291 C 1668.536 585.287 1668.813 583.911 1668.294 582.682 C 1667.776 581.453 1666.541 580.557 1665.055 580.332 C 1663.57 580.107 1662.058 580.587 1661.091 581.591 C 1660.241 582.421 1641.126 603.062 1654.507 630.43 C 1666.294 654.573 1663.533 663.511 1660.347 673.739 L 1660.241 674.2 L 1660.241 674.2 Z " fill="rgb(249,211,51)"/><path d=" M 1433.356 543.642 C 1440.202 529.698 1462.382 526.538 1482.856 536.59 C 1503.329 546.642 1514.393 566.123 1507.547 580.067 C 1500.701 594.011 1478.521 597.171 1458.047 587.119 C 1437.574 577.067 1426.51 557.586 1433.356 543.642 Z " fill="rgb(235,235,235)"/><ellipse vector-effect="non-scaling-stroke" cx="1451.6896478899187" cy="740.3738720334579" rx="78.31035211008134" ry="150.37387203345781" fill="rgb(235,235,235)"/><path d=" M 1470.495 658.197 C 1471.651 653.942 1495.833 656.806 1524.461 664.589 C 1553.089 672.373 1575.392 682.146 1574.235 686.402 C 1573.079 690.657 1548.897 687.793 1520.269 680.01 C 1491.641 672.227 1469.338 662.453 1470.495 658.197 Z " fill="rgb(235,235,235)"/><g><path d=" M 1509.568 482.343 C 1509.828 471.991 1500.699 463.386 1489.148 463.097 C 1486.44 463.029 1483.971 463.408 1481.491 464.232 C 1477.927 459.285 1471.86 456.051 1464.738 455.873 C 1458.103 455.707 1451.887 458.416 1448.09 462.729 C 1446.135 462.244 1444.42 461.976 1442.454 461.927 C 1430.904 461.637 1421.355 469.773 1421.096 480.126 C 1420.886 488.496 1426.847 495.923 1435.394 498.342 L 1434.378 538.867 L 1493.36 540.345 L 1494.375 499.82 C 1503.032 497.833 1509.358 490.716 1509.568 482.343 Z " fill="rgb(144,202,249)"/><path d=" M 1449.344 530.426 C 1447.987 530.391 1446.911 529.378 1446.942 528.161 L 1447.439 508.337 C 1447.527 507.16 1448.633 506.259 1449.949 506.292 C 1451.265 506.325 1452.325 507.28 1452.354 508.46 L 1451.857 528.284 C 1451.827 529.501 1450.702 530.46 1449.344 530.426 Z  M 1466.602 528.654 L 1467.099 508.83 C 1467.07 507.65 1466.01 506.695 1464.695 506.662 C 1463.379 506.629 1462.273 507.53 1462.184 508.707 L 1461.687 528.531 C 1461.66 529.632 1462.61 530.758 1464.09 530.795 C 1465.569 530.832 1466.575 529.755 1466.602 528.654 Z  M 1481.348 529.024 L 1481.845 509.199 C 1481.815 508.02 1480.756 507.064 1479.44 507.031 C 1478.124 506.998 1477.018 507.899 1476.93 509.076 L 1476.433 528.9 C 1476.405 530.002 1477.356 531.128 1478.835 531.165 C 1480.315 531.202 1481.32 530.125 1481.348 529.024 Z " fill="rgb(30,136,229)"/><path d=" M 1434.709 525.651 L 1493.691 527.129 L 1493.36 540.345 L 1434.378 538.867 L 1434.709 525.651 Z " fill="rgb(66,165,245)"/></g><g><path d=" M 123.321 326.123 C 123.321 320.672 123.964 315.425 125.247 310.386 C 126.497 305.431 128.32 300.673 130.669 296.23 C 132.988 291.85 135.809 287.818 139.062 284.233 C 142.312 280.645 145.968 277.533 149.94 274.975 C 153.969 272.384 158.283 270.374 162.776 268.995 C 167.42 267.569 172.221 266.856 177.042 266.875 L 177.042 271.813 C 172.521 271.813 168.166 272.462 163.981 273.761 C 159.868 275.027 155.919 276.867 152.23 279.239 C 148.583 281.589 145.227 284.447 142.243 287.744 C 139.255 291.035 136.663 294.737 134.533 298.758 C 132.383 302.826 130.714 307.181 129.567 311.716 C 128.38 316.406 127.785 321.254 127.8 326.123 L 123.323 326.123 L 123.321 326.123 Z  M 136.752 326.123 C 136.752 322.035 137.229 318.093 138.186 314.299 C 139.116 310.578 140.48 307.006 142.245 303.674 C 143.986 300.393 146.102 297.373 148.539 294.685 C 150.975 291.995 153.714 289.662 156.689 287.742 C 159.711 285.795 162.951 284.291 166.325 283.268 C 169.817 282.206 173.424 281.673 177.046 281.685 L 177.046 286.623 C 173.838 286.611 170.643 287.085 167.551 288.032 C 161.572 289.862 156.126 293.37 151.742 298.214 C 149.571 300.608 147.686 303.297 146.131 306.217 C 144.558 309.173 143.341 312.343 142.51 315.647 C 141.651 319.058 141.22 322.583 141.229 326.123 L 136.752 326.123 L 136.752 326.123 Z  M 150.182 326.123 C 150.182 323.397 150.503 320.773 151.144 318.254 C 151.768 315.776 152.679 313.398 153.854 311.176 C 155.014 308.987 156.425 306.971 158.052 305.179 C 159.677 303.385 161.504 301.829 163.488 300.549 C 165.503 299.254 167.66 298.25 169.907 297.562 C 172.231 296.849 174.632 296.492 177.044 296.5 L 177.044 301.438 C 174.993 301.438 173.011 301.734 171.099 302.324 C 169.187 302.914 167.404 303.744 165.748 304.813 C 162.428 306.954 159.663 310.003 157.722 313.665 C 156.744 315.517 155.986 317.499 155.465 319.564 C 154.928 321.67 154.659 323.86 154.659 326.125 L 150.182 326.125 L 150.182 326.123 Z  M 170.329 311.31 C 172.111 311.307 173.822 312.084 175.084 313.472 C 176.341 314.866 177.045 316.751 177.044 318.717 C 177.047 320.682 176.342 322.569 175.084 323.961 C 174.471 324.634 173.747 325.171 172.951 325.543 C 172.135 325.93 171.26 326.123 170.329 326.123 C 168.546 326.126 166.836 325.349 165.573 323.961 C 164.963 323.285 164.476 322.487 164.139 321.609 C 163.786 320.695 163.607 319.71 163.613 318.717 C 163.61 316.751 164.315 314.864 165.573 313.472 C 166.186 312.8 166.91 312.264 167.706 311.892 C 168.522 311.503 169.396 311.31 170.329 311.31 Z " fill-rule="evenodd" fill="rgb(35,31,32)"/><rect x="114.369" y="257" width="71.631" height="79" transform="matrix(1,0,0,1,0,0)" fill="none"/></g></g></svg>