<?xml version="1.0" encoding="UTF-8" standalone="no"?><!-- Generator: Gravit.io --><svg xmlns="http://www.w3.org/2000/svg" xmlns:xlink="http://www.w3.org/1999/xlink" style="isolation:isolate" viewBox="0 0 500 500" width="500pt" height="500pt"><defs><clipPath id="_clipPath_R945Tp53hK3Rbbq0UblDd7ZY4sPLoWb7"><rect width="500" height="500"/></clipPath></defs><g clip-path="url(#_clipPath_R945Tp53hK3Rbbq0UblDd7ZY4sPLoWb7)"><g><path d=" M 307.692 343.911 C 307.692 343.911 294.872 391.939 243.59 391.939 C 243.59 391.939 179.487 343.911 179.487 343.911 C 179.487 343.911 38.462 367.757 38.462 500 L 448.718 500 C 448.718 368.225 307.692 343.911 307.692 343.911 Z " fill="rgb(79,195,247)"/><path d=" M 243.59 415.952 C 179.487 415.952 179.487 343.911 179.487 343.911 L 179.487 271.87 L 307.692 271.87 L 307.692 343.911 C 307.692 343.911 307.692 415.952 243.59 415.952 Z " fill="rgb(255,152,0)"/><path d=" M 384.615 199.83 C 384.826 208.535 379.988 216.664 371.972 221.076 C 363.956 225.487 354.019 225.49 346.001 221.082 C 337.983 216.674 333.141 208.547 333.346 199.842 C 333.654 186.792 345.037 176.362 358.975 176.359 C 372.912 176.355 384.3 186.78 384.615 199.83 Z  M 153.846 199.83 C 154.056 208.535 149.219 216.664 141.203 221.076 C 133.187 225.487 123.25 225.49 115.232 221.082 C 107.214 216.674 102.371 208.547 102.577 199.842 C 102.885 186.792 114.268 176.362 128.205 176.359 C 142.143 176.355 153.531 186.78 153.846 199.83 Z " fill="rgb(255,167,38)"/><path d=" M 358.974 127.789 C 358.974 36.117 128.205 68.103 128.205 127.789 L 128.205 211.836 C 128.205 271.517 179.865 319.898 243.59 319.898 C 307.315 319.898 358.974 271.517 358.974 211.836 L 358.974 127.789 Z " fill="rgb(255,183,77)"/><path d=" M 243.59 19.727 C 165.705 19.727 115.385 78.861 115.385 151.802 L 115.385 179.226 L 141.026 199.83 L 141.026 139.795 L 294.872 91.768 L 346.154 139.795 L 346.154 199.83 L 371.795 178.926 L 371.795 151.802 C 371.795 103.475 358.487 55.568 294.872 43.741 L 282.051 19.727 L 243.59 19.727 Z " fill="rgb(66,66,66)"/><path d=" M 179.487 199.83 C 179.489 208.411 184.38 216.339 192.316 220.628 C 200.253 224.917 210.03 224.915 217.964 220.622 C 225.898 216.33 230.784 208.399 230.782 199.817 C 230.779 186.552 219.293 175.801 205.128 175.804 C 190.964 175.807 179.484 186.564 179.487 199.83 M 256.41 199.83 C 256.413 208.411 261.303 216.339 269.24 220.628 C 277.176 224.917 286.953 224.915 294.887 220.622 C 302.821 216.33 307.707 208.399 307.705 199.817 C 307.702 186.552 296.216 175.801 282.051 175.804 C 267.887 175.807 256.407 186.564 256.41 199.83" fill="rgb(255,255,255)"/><path d=" M 269.231 211.836 C 269.231 218.468 274.971 223.843 282.051 223.843 C 289.132 223.843 294.872 218.468 294.872 211.836 C 294.872 205.205 289.132 199.83 282.051 199.83 C 274.971 199.83 269.231 205.205 269.231 211.836 Z  M 192.308 187.823 C 192.308 194.454 198.048 199.83 205.128 199.83 C 212.209 199.83 217.949 194.454 217.949 187.823 C 217.949 181.191 212.209 175.816 205.128 175.816 C 198.048 175.816 192.308 181.191 192.308 187.823 Z " fill="rgb(120,71,25)"/><path d=" M 243.59 415.952 C 307.692 415.952 330.064 368.765 332.705 350.779 C 317.872 345.688 307.692 343.911 307.692 343.911 C 307.692 343.911 294.872 391.939 243.59 391.939 C 192.308 391.939 179.487 343.911 179.487 343.911 C 179.487 343.911 169.308 345.664 154.462 350.707 C 157.077 368.657 179.487 415.952 243.59 415.952 Z " fill="rgb(1,87,155)"/><g><path d=" M 415.667 103.307 L 406.064 85.092 L 384.615 82.175 L 400.141 68.019 L 396.474 48.027 L 415.667 57.465 L 434.846 48.027 L 431.179 68.019 L 446.705 82.175 L 425.256 85.092 L 415.667 103.307 Z " fill="rgb(255,193,7)"/><path d=" M 31.038 199.361 L 21.449 181.147 L 0 178.229 L 15.513 164.073 L 11.859 144.082 L 31.038 153.519 L 50.231 144.082 L 46.564 164.073 L 62.09 178.229 L 40.628 181.147 L 31.038 199.361 Z " fill="rgb(255,193,7)"/><path d=" M 453.103 216.123 L 438.615 188.627 L 406.218 184.185 L 429.667 162.824 L 424.128 132.615 L 453.103 146.903 L 482.103 132.615 L 476.551 162.824 L 500 184.185 L 467.603 188.627 L 453.103 216.123 Z " fill="rgb(255,193,7)"/><path d=" M 167.231 103.775 L 132.449 84.936 L 96.154 101.085 L 104.551 64.285 L 76.923 36.957 L 116.885 33.043 L 136.115 0 L 152.423 34.4 L 191.923 41.303 L 162.038 66.47 L 167.231 103.775 Z " fill="rgb(255,193,7)"/></g></g></g></svg>